<svg version="1.1" id="Layer_1" xmlns="http://www.w3.org/2000/svg" x="0" y="0" width="214.753" height="24.476" viewBox="0 0 214.753 24.476" xml:space="preserve"><g opacity=".8" fill="#999"><path d="M76.92 18.996c0 1.63-.594 2.88-1.78 3.75-1.19.87-2.89 1.306-5.102 1.306-2.224 0-4.01-.337-5.357-1.012v-3.063c1.963.904 3.79 1.357 5.48 1.357 2.182 0 3.274-.658 3.274-1.977 0-.423-.12-.775-.362-1.057-.242-.28-.64-.573-1.192-.875-.554-.303-1.323-.645-2.31-1.026-1.92-.746-3.22-1.49-3.9-2.235-.68-.744-1.02-1.71-1.02-2.897 0-1.428.577-2.538 1.73-3.328 1.15-.79 2.718-1.185 4.7-1.185 1.962 0 3.818.397 5.57 1.192l-1.148 2.67c-1.8-.744-3.315-1.116-4.543-1.116-1.872 0-2.808.534-2.808 1.6 0 .524.244.967.732 1.33.488.36 1.552.86 3.192 1.493 1.378.533 2.38 1.02 3.003 1.464.623.443 1.086.954 1.388 1.532s.452 1.27.452 2.076zM80.542 2.636c0-.634.173-1.122.52-1.464C81.41.83 81.907.66 82.55.66c.624 0 1.11.17 1.456.512.347.342.52.83.52 1.464 0 .604-.173 1.08-.52 1.426-.347.347-.833.52-1.456.52-.644 0-1.14-.173-1.487-.52-.348-.347-.52-.822-.52-1.426zM84.3 23.75h-3.546V7.058H84.3V23.75zM95.59 21.184c.864 0 1.73-.137 2.595-.408v2.672c-.393.17-.898.314-1.517.43-.62.115-1.26.174-1.924.174-3.36 0-5.04-1.77-5.04-5.313V9.743h-2.28v-1.57l2.445-1.297 1.207-3.532h2.188v3.713h4.754v2.686h-4.755v8.934c0 .855.213 1.486.64 1.895.428.407.99.61 1.684.61zM108.81 24.05c-2.597 0-4.626-.756-6.09-2.27-1.464-1.514-2.196-3.6-2.196-6.255 0-2.727.68-4.87 2.037-6.43 1.36-1.558 3.226-2.338 5.6-2.338 2.204 0 3.944.67 5.222 2.007 1.278 1.338 1.917 3.18 1.917 5.524v1.917h-11.124c.05 1.62.488 2.865 1.313 3.735.824.87 1.986 1.306 3.485 1.306.986 0 1.904-.094 2.754-.28.85-.186 1.762-.495 2.738-.927v2.88c-.866.414-1.74.705-2.626.877-.885.168-1.897.254-3.033.254zm-.65-14.608c-1.127 0-2.03.357-2.71 1.072s-1.083 1.756-1.214 3.124h7.576c-.02-1.378-.353-2.422-.996-3.132-.644-.71-1.53-1.064-2.656-1.064zM130.54 18.996c0 1.63-.593 2.88-1.78 3.75-1.187.87-2.887 1.306-5.1 1.306-2.225 0-4.01-.337-5.357-1.012v-3.063c1.96.904 3.787 1.357 5.478 1.357 2.184 0 3.275-.658 3.275-1.977 0-.423-.12-.775-.36-1.057-.243-.28-.64-.573-1.193-.875-.554-.303-1.323-.645-2.31-1.026-1.922-.746-3.222-1.49-3.9-2.235-.68-.744-1.02-1.71-1.02-2.897 0-1.428.576-2.538 1.73-3.328 1.15-.79 2.718-1.185 4.7-1.185 1.962 0 3.818.397 5.568 1.192l-1.146 2.67c-1.8-.744-3.315-1.116-4.543-1.116-1.87 0-2.806.534-2.806 1.6 0 .524.244.967.732 1.33.487.36 1.55.86 3.19 1.493 1.38.533 2.38 1.02 3.004 1.464.624.443 1.087.954 1.39 1.532s.45 1.27.45 2.076z"/></g><g fill="#CCC"><path d="M141.875 24.05c-2.385 0-4.243-.733-5.576-2.202s-2-3.526-2-6.173c0-2.616.644-4.71 1.93-6.286 1.29-1.575 3.024-2.363 5.208-2.363 1.932 0 3.456.674 4.573 2.022 1.117 1.347 1.676 3.178 1.676 5.492v1.208H135.87c.02 2.253.545 3.974 1.576 5.162s2.508 1.78 4.43 1.78c.936 0 1.76-.065 2.468-.196.71-.13 1.607-.412 2.694-.845v1.36c-.926.4-1.78.676-2.566.82-.786.148-1.652.22-2.597.22zm-.438-15.694c-1.58 0-2.848.52-3.803 1.562-.956 1.042-1.515 2.543-1.676 4.505H146.1c0-1.902-.412-3.388-1.237-4.46-.824-1.07-1.967-1.607-3.426-1.607zM158.22 7.028c1.187 0 2.213.216 3.078.65s1.64 1.17 2.324 2.218h.09c-.06-1.268-.09-2.51-.09-3.728v-5.9h1.48V23.75h-.98l-.378-2.505h-.12c-1.25 1.87-3.04 2.807-5.374 2.807-2.264 0-3.994-.704-5.19-2.113-1.198-1.41-1.797-3.462-1.797-6.158 0-2.837.594-5.005 1.78-6.505 1.187-1.5 2.913-2.25 5.177-2.25zm0 1.358c-1.79 0-3.137.63-4.037 1.886-.9 1.258-1.352 3.084-1.352 5.48 0 4.647 1.808 6.97 5.42 6.97 1.85 0 3.208-.537 4.074-1.614.864-1.076 1.298-2.852 1.298-5.327v-.256c0-2.535-.426-4.36-1.275-5.47-.85-1.112-2.226-1.668-4.127-1.668zM170.398 2.787c0-.966.317-1.45.95-1.45.313 0 .557.127.733.378.177.252.265.61.265 1.072 0 .453-.088.81-.264 1.07-.176.263-.42.394-.73.394-.635 0-.952-.487-.952-1.463zm1.705 20.963h-1.494V7.345h1.493V23.75zM181.93 22.723c.944 0 1.77-.08 2.474-.24v1.206c-.725.24-1.56.36-2.506.36-1.448 0-2.518-.386-3.207-1.16-.688-.775-1.032-1.993-1.032-3.653V8.643h-2.43v-.875l2.43-.68.754-3.712h.77v3.97h4.814v1.297h-4.813v10.383c0 1.258.222 2.188.664 2.792.442.603 1.136.905 2.082.905zM201.517 15.524c0 2.677-.648 4.767-1.947 6.27-1.297 1.505-3.088 2.257-5.372 2.257-1.438 0-2.706-.347-3.804-1.04-1.096-.694-1.937-1.69-2.52-2.988-.584-1.298-.875-2.797-.875-4.498 0-2.676.647-4.76 1.945-6.255s3.08-2.242 5.343-2.242c2.254 0 4.02.757 5.305 2.27s1.924 3.59 1.924 6.226zm-12.95 0c0 2.253.497 4.012 1.488 5.275s2.392 1.893 4.203 1.893 3.212-.63 4.203-1.894 1.487-3.022 1.487-5.276c0-2.264-.5-4.02-1.5-5.267-1.003-1.247-2.41-1.87-4.22-1.87s-3.207.62-4.188 1.863c-.98 1.243-1.472 3-1.472 5.274zM212.52 7.028c.694 0 1.438.07 2.233.21l-.287 1.435c-.685-.17-1.394-.256-2.128-.256-1.398 0-2.546.594-3.44 1.78-.896 1.188-1.344 2.687-1.344 4.498v9.055h-1.494V7.345h1.268l.15 2.958h.106c.674-1.208 1.394-2.055 2.158-2.543.765-.488 1.69-.732 2.777-.732z"/></g><path fill-rule="evenodd" clip-rule="evenodd" fill="#4D4D4D" d="M10.09 21.867c.262 1.65 1.016 2.463 2.407 2.463 1.306 0 2.235-.348 2.988-.725v-1.65h-.464c-1.478 0-1.68-.495-1.68-1.394v-8.583c0-3.45-2.322-5.016-6.324-5.016C2.87 6.96.61 8.615.61 11.137c0 .813.085 1.19.26 1.856l3.277-.203c-.118-.495-.26-.784-.26-1.365 0-1.014.463-2.087 2.956-2.087 2.233 0 3.192 1.103 3.192 3.19-.262.84-2.38 1.478-5.454 2.232C2.09 15.37 0 16.79 0 19.46c0 2.986 1.51 5.016 4.988 5.016 2.088 0 4.06-.726 5.103-2.61zm-.055-6.7l-.146 3.16c-.06 2.176-1.538 3.51-3.19 3.654-2.205.204-3.162-.926-3.162-2.377 0-1.652 1.13-2.552 3.827-3.16 1.015-.233 2.32-.726 2.67-1.276zm10.54 3.123v5.84h-3.327V1.856h3.326V14.76l5.28-7.278h3.798l-4.815 6.234 6.648 10.412s-3.79-.004-3.793-.02l-5.117-8.16-2 2.342zm15.548 5.838l-5.51-16.646h3.596l3.993 12.994L42.6 7.482h3.274L40.91 22.197c-.37 1.176-1.12 1.932-2.325 1.932h-2.462v-.002zm24.346-8.062c0-5.888-2.35-9.105-7.048-9.105-4.61 0-7.047 2.9-7.047 9.106 0 6.03 2.408 8.41 7.047 8.41 4.41 0 7.047-2.32 7.047-8.41zM49.94 15.95c0-4.61 1.072-6.32 3.48-6.32 2.35 0 3.478 1.71 3.478 6.32 0 4.12-1.014 5.713-3.48 5.713-2.463 0-3.478-1.508-3.478-5.713z"/></svg>