<?xml version="1.0" encoding="utf-8"?>
<!-- Generator: Adobe Illustrator 16.0.0, SVG Export Plug-In . SVG Version: 6.00 Build 0)  -->
<!DOCTYPE svg PUBLIC "-//W3C//DTD SVG 1.1//EN" "http://www.w3.org/Graphics/SVG/1.1/DTD/svg11.dtd">
<svg version="1.1" id="Layer_1" xmlns="http://www.w3.org/2000/svg" xmlns:xlink="http://www.w3.org/1999/xlink" x="0px" y="0px"
	 width="214.753px" height="24.476px" viewBox="0 0 214.753 24.476" enable-background="new 0 0 214.753 24.476"
	 xml:space="preserve">
<g opacity="0.8">
	<path fill="#999999" d="M76.92,18.996c0,1.63-0.594,2.88-1.781,3.751c-1.188,0.869-2.888,1.305-5.101,1.305
		c-2.224,0-4.009-0.337-5.357-1.012v-3.063c1.962,0.904,3.788,1.357,5.478,1.357c2.183,0,3.275-0.658,3.275-1.977
		c0-0.423-0.121-0.775-0.362-1.057c-0.242-0.281-0.639-0.573-1.192-0.875c-0.554-0.303-1.323-0.645-2.309-1.026
		c-1.922-0.745-3.222-1.489-3.901-2.234c-0.679-0.744-1.019-1.71-1.019-2.897c0-1.428,0.576-2.538,1.728-3.328
		c1.152-0.79,2.719-1.185,4.701-1.185c1.962,0,3.818,0.397,5.569,1.192l-1.147,2.671c-1.801-0.745-3.315-1.117-4.543-1.117
		c-1.871,0-2.807,0.533-2.807,1.6c0,0.523,0.244,0.966,0.732,1.328c0.488,0.362,1.552,0.86,3.192,1.494
		c1.378,0.533,2.379,1.021,3.003,1.464c0.624,0.443,1.087,0.954,1.389,1.532S76.92,18.191,76.92,18.996z"/>
	<path fill="#999999" d="M80.542,2.636c0-0.634,0.173-1.122,0.521-1.464c0.347-0.342,0.843-0.513,1.487-0.513
		c0.624,0,1.109,0.171,1.456,0.513c0.347,0.342,0.521,0.83,0.521,1.464c0,0.604-0.174,1.079-0.521,1.426
		c-0.347,0.347-0.833,0.521-1.456,0.521c-0.644,0-1.14-0.174-1.487-0.521C80.715,3.715,80.542,3.24,80.542,2.636z M84.3,23.75
		h-3.546V7.058H84.3V23.75z"/>
	<path fill="#999999" d="M95.589,21.184c0.865,0,1.73-0.137,2.596-0.408v2.672c-0.393,0.171-0.898,0.314-1.517,0.43
		c-0.619,0.115-1.26,0.174-1.924,0.174c-3.361,0-5.041-1.771-5.041-5.313V9.744h-2.279V8.175l2.445-1.298l1.208-3.532h2.188v3.713
		h4.754v2.686h-4.754v8.934c0,0.855,0.213,1.486,0.641,1.895C94.333,20.98,94.895,21.184,95.589,21.184z"/>
	<path fill="#999999" d="M108.809,24.051c-2.596,0-4.625-0.757-6.089-2.271c-1.464-1.514-2.196-3.6-2.196-6.255
		c0-2.727,0.679-4.869,2.037-6.429c1.358-1.559,3.225-2.339,5.599-2.339c2.204,0,3.944,0.669,5.222,2.007
		c1.278,1.338,1.917,3.18,1.917,5.524v1.917h-11.123c0.05,1.62,0.488,2.865,1.313,3.735c0.825,0.87,1.987,1.306,3.486,1.306
		c0.986,0,1.904-0.094,2.754-0.279c0.85-0.187,1.763-0.496,2.739-0.928v2.882c-0.866,0.413-1.741,0.704-2.626,0.876
		C110.957,23.965,109.945,24.051,108.809,24.051z M108.16,9.442c-1.127,0-2.03,0.357-2.709,1.072s-1.084,1.756-1.215,3.124h7.576
		c-0.021-1.378-0.353-2.422-0.996-3.132C110.172,9.797,109.286,9.442,108.16,9.442z"/>
	<path fill="#999999" d="M130.541,18.996c0,1.63-0.594,2.88-1.78,3.751c-1.188,0.869-2.888,1.305-5.101,1.305
		c-2.225,0-4.01-0.337-5.357-1.012v-3.063c1.961,0.904,3.787,1.357,5.478,1.357c2.183,0,3.274-0.658,3.274-1.977
		c0-0.423-0.12-0.775-0.361-1.057c-0.242-0.281-0.639-0.573-1.192-0.875c-0.554-0.303-1.323-0.645-2.31-1.026
		c-1.922-0.745-3.222-1.489-3.9-2.234c-0.68-0.744-1.02-1.71-1.02-2.897c0-1.428,0.576-2.538,1.729-3.328
		c1.152-0.79,2.719-1.185,4.701-1.185c1.962,0,3.818,0.397,5.568,1.192l-1.146,2.671c-1.801-0.745-3.315-1.117-4.543-1.117
		c-1.871,0-2.807,0.533-2.807,1.6c0,0.523,0.244,0.966,0.732,1.328c0.487,0.362,1.551,0.86,3.191,1.494
		c1.378,0.533,2.379,1.021,3.003,1.464c0.624,0.443,1.087,0.954,1.389,1.532S130.541,18.191,130.541,18.996z"/>
</g>
<g>
	<path fill="#CCCCCC" d="M141.875,24.051c-2.385,0-4.243-0.734-5.576-2.203s-2-3.526-2-6.173c0-2.616,0.645-4.711,1.932-6.286
		c1.289-1.574,3.023-2.362,5.207-2.362c1.932,0,3.456,0.674,4.573,2.022c1.116,1.348,1.675,3.179,1.675,5.493v1.208h-11.816
		c0.02,2.253,0.545,3.974,1.576,5.162s2.508,1.78,4.43,1.78c0.936,0,1.759-0.065,2.468-0.196c0.71-0.131,1.607-0.412,2.694-0.845
		v1.358c-0.926,0.402-1.781,0.677-2.566,0.822C143.686,23.978,142.82,24.051,141.875,24.051z M141.437,8.356
		c-1.58,0-2.848,0.521-3.803,1.562c-0.956,1.042-1.515,2.543-1.676,4.505h10.143c0-1.902-0.413-3.388-1.238-4.459
		C144.039,8.892,142.896,8.356,141.437,8.356z"/>
	<path fill="#CCCCCC" d="M158.22,7.028c1.187,0,2.213,0.216,3.078,0.649s1.64,1.172,2.324,2.219h0.09
		c-0.061-1.268-0.09-2.51-0.09-3.728V0.267h1.479V23.75h-0.98l-0.377-2.505h-0.121c-1.248,1.871-3.039,2.807-5.373,2.807
		c-2.264,0-3.994-0.704-5.191-2.113c-1.197-1.408-1.796-3.461-1.796-6.157c0-2.837,0.594-5.005,1.78-6.505
		C154.23,7.777,155.956,7.028,158.22,7.028z M158.22,8.386c-1.791,0-3.137,0.629-4.037,1.886c-0.901,1.258-1.352,3.084-1.352,5.479
		c0,4.648,1.807,6.972,5.418,6.972c1.852,0,3.209-0.538,4.075-1.615c0.864-1.076,1.298-2.852,1.298-5.327v-0.257
		c0-2.535-0.426-4.359-1.275-5.471C161.497,8.942,160.121,8.386,158.22,8.386z"/>
	<path fill="#CCCCCC" d="M170.398,2.787c0-0.966,0.317-1.449,0.951-1.449c0.312,0,0.556,0.126,0.732,0.377
		c0.176,0.252,0.264,0.609,0.264,1.072c0,0.453-0.088,0.81-0.264,1.071c-0.177,0.262-0.421,0.393-0.732,0.393
		C170.715,4.251,170.398,3.763,170.398,2.787z M172.103,23.75h-1.494V7.345h1.494V23.75z"/>
	<path fill="#CCCCCC" d="M181.929,22.723c0.945,0,1.77-0.08,2.475-0.241v1.207c-0.725,0.241-1.56,0.362-2.506,0.362
		c-1.448,0-2.518-0.387-3.207-1.162c-0.689-0.774-1.033-1.992-1.033-3.652V8.643h-2.43V7.768l2.43-0.679l0.754-3.713h0.771v3.969
		h4.813v1.298h-4.813v10.383c0,1.258,0.222,2.188,0.664,2.792C180.289,22.421,180.983,22.723,181.929,22.723z"/>
	<path fill="#CCCCCC" d="M201.517,15.524c0,2.677-0.648,4.767-1.947,6.271c-1.297,1.504-3.088,2.256-5.372,2.256
		c-1.438,0-2.706-0.348-3.804-1.041c-1.096-0.694-1.937-1.69-2.52-2.988c-0.584-1.298-0.875-2.797-0.875-4.498
		c0-2.676,0.648-4.761,1.946-6.255s3.079-2.241,5.343-2.241c2.254,0,4.021,0.757,5.305,2.271S201.517,12.889,201.517,15.524z
		 M188.568,15.524c0,2.253,0.496,4.012,1.487,5.275s2.392,1.894,4.203,1.894s3.212-0.631,4.203-1.894s1.486-3.021,1.486-5.275
		c0-2.264-0.501-4.019-1.501-5.267c-1.002-1.247-2.408-1.871-4.219-1.871s-3.207,0.621-4.188,1.864
		C189.059,11.493,188.568,13.251,188.568,15.524z"/>
	<path fill="#CCCCCC" d="M212.519,7.028c0.695,0,1.439,0.07,2.234,0.211l-0.287,1.434c-0.685-0.171-1.394-0.256-2.128-0.256
		c-1.398,0-2.546,0.594-3.44,1.781c-0.896,1.187-1.344,2.686-1.344,4.497v9.055h-1.494V7.345h1.268l0.151,2.958h0.105
		c0.674-1.208,1.394-2.055,2.158-2.543C210.507,7.272,211.433,7.028,212.519,7.028z"/>
</g>
<path fill-rule="evenodd" clip-rule="evenodd" fill="#4D4D4D" d="M10.091,21.867c0.261,1.651,1.015,2.463,2.406,2.463
	c1.306,0,2.235-0.348,2.988-0.725v-1.651c0,0-0.319,0-0.464,0c-1.479,0-1.682-0.494-1.682-1.393v-8.584
	c0-3.449-2.321-5.016-6.323-5.016c-4.147,0-6.407,1.653-6.407,4.175c0,0.813,0.086,1.19,0.261,1.856l3.277-0.203
	c-0.118-0.494-0.261-0.783-0.261-1.364c0-1.014,0.464-2.087,2.957-2.087c2.233,0,3.192,1.103,3.192,3.189
	c-0.262,0.841-2.379,1.479-5.454,2.233C2.088,15.37,0,16.791,0,19.459c0,2.987,1.509,5.017,4.988,5.017
	C7.076,24.476,9.048,23.75,10.091,21.867L10.091,21.867z M10.035,15.167l-0.146,3.161c-0.058,2.175-1.537,3.509-3.19,3.653
	c-2.204,0.203-3.161-0.927-3.161-2.378c0-1.652,1.131-2.552,3.827-3.16C8.38,16.21,9.686,15.717,10.035,15.167L10.035,15.167z
	 M20.574,18.29v5.839h-3.326V1.857h3.326v12.904l5.279-7.279h3.799l-4.815,6.234l6.648,10.412c0,0-3.79-0.004-3.793-0.019
	l-5.117-8.16L20.574,18.29L20.574,18.29z M36.123,24.128l-5.51-16.646h3.596l3.994,12.994l4.397-12.994h3.274L40.91,22.197
	c-0.37,1.176-1.119,1.932-2.325,1.932H36.123L36.123,24.128z M60.469,16.066c0-5.888-2.35-9.105-7.047-9.105
	c-4.611,0-7.047,2.899-7.047,9.105c0,6.03,2.408,8.41,7.047,8.41C57.831,24.476,60.469,22.156,60.469,16.066L60.469,16.066z
	 M49.942,15.95c0-4.61,1.072-6.32,3.479-6.32c2.35,0,3.479,1.71,3.479,6.32c0,4.119-1.014,5.713-3.479,5.713
	C50.957,21.663,49.942,20.155,49.942,15.95L49.942,15.95z"/>
</svg>
